solid OpenSCAD_Model
  facet normal -0.978612 0.205713 0
    outer loop
      vertex -16.5 0 0
      vertex -16.1394 1.71527 7
      vertex -16.1394 1.71527 0
    endloop
  endfacet
  facet normal -0.978612 0.205713 0
    outer loop
      vertex -16.1394 1.71527 7
      vertex -16.5 0 0
      vertex -16.5 0 7
    endloop
  endfacet
  facet normal 0 1 -0
    outer loop
      vertex 1.72472 8.20481 0
      vertex -1.72472 8.20481 7
      vertex 1.72472 8.20481 7
    endloop
  endfacet
  facet normal 0 1 0
    outer loop
      vertex -1.72472 8.20481 7
      vertex 1.72472 8.20481 0
      vertex -1.72472 8.20481 0
    endloop
  endfacet
  facet normal 0 -1 0
    outer loop
      vertex -1.72472 -8.20481 0
      vertex 1.72472 -8.20481 7
      vertex -1.72472 -8.20481 7
    endloop
  endfacet
  facet normal 0 -1 -0
    outer loop
      vertex 1.72472 -8.20481 7
      vertex -1.72472 -8.20481 0
      vertex 1.72472 -8.20481 0
    endloop
  endfacet
  facet normal 0.485476 0.87425 -0
    outer loop
      vertex 13.3488 4.84923 0
      vertex 11.0407 6.13094 7
      vertex 13.3488 4.84923 7
    endloop
  endfacet
  facet normal 0.485476 0.87425 0
    outer loop
      vertex 11.0407 6.13094 7
      vertex 13.3488 4.84923 0
      vertex 11.0407 6.13094 0
    endloop
  endfacet
  facet normal -0.485476 0.87425 0
    outer loop
      vertex -11.0407 6.13094 0
      vertex -13.3488 4.84923 7
      vertex -11.0407 6.13094 7
    endloop
  endfacet
  facet normal -0.485476 0.87425 0
    outer loop
      vertex -13.3488 4.84923 7
      vertex -11.0407 6.13094 0
      vertex -13.3488 4.84923 0
    endloop
  endfacet
  facet normal -0.654654 0.755929 0
    outer loop
      vertex -13.3488 4.84923 0
      vertex -15.0735 3.35558 7
      vertex -13.3488 4.84923 7
    endloop
  endfacet
  facet normal -0.654654 0.755929 0
    outer loop
      vertex -15.0735 3.35558 7
      vertex -13.3488 4.84923 0
      vertex -15.0735 3.35558 0
    endloop
  endfacet
  facet normal -0.217295 0.976106 0
    outer loop
      vertex -5.09878 7.84622 0
      vertex -8.25 7.14471 7
      vertex -5.09878 7.84622 7
    endloop
  endfacet
  facet normal -0.217295 0.976106 0
    outer loop
      vertex -8.25 7.14471 7
      vertex -5.09878 7.84622 0
      vertex -8.25 7.14471 0
    endloop
  endfacet
  facet normal 0.838505 -0.544894 0
    outer loop
      vertex 15.0735 -3.35558 7
      vertex 15.3302 -2.9605 0
      vertex 15.3302 -2.9605 7
    endloop
  endfacet
  facet normal 0.838505 -0.544894 0
    outer loop
      vertex 15.3302 -2.9605 0
      vertex 15.0735 -3.35558 7
      vertex 15.0735 -3.35558 0
    endloop
  endfacet
  facet normal 0.654654 0.755929 -0
    outer loop
      vertex 15.0735 3.35558 0
      vertex 13.3488 4.84923 7
      vertex 15.0735 3.35558 7
    endloop
  endfacet
  facet normal 0.654654 0.755929 0
    outer loop
      vertex 13.3488 4.84923 7
      vertex 15.0735 3.35558 0
      vertex 13.3488 4.84923 0
    endloop
  endfacet
  facet normal 0.838505 0.544894 0
    outer loop
      vertex 15.3302 2.9605 7
      vertex 15.0735 3.35558 0
      vertex 15.0735 3.35558 7
    endloop
  endfacet
  facet normal 0.838505 0.544894 0
    outer loop
      vertex 15.0735 3.35558 0
      vertex 15.3302 2.9605 7
      vertex 15.3302 2.9605 0
    endloop
  endfacet
  facet normal 0.217295 0.976106 -0
    outer loop
      vertex 8.25 7.14471 0
      vertex 5.09878 7.84622 7
      vertex 8.25 7.14471 7
    endloop
  endfacet
  facet normal 0.217295 0.976106 0
    outer loop
      vertex 5.09878 7.84622 7
      vertex 8.25 7.14471 0
      vertex 5.09878 7.84622 0
    endloop
  endfacet
  facet normal 0.105683 0.9944 -0
    outer loop
      vertex 5.09878 7.84622 0
      vertex 1.72472 8.20481 7
      vertex 5.09878 7.84622 7
    endloop
  endfacet
  facet normal 0.105683 0.9944 0
    outer loop
      vertex 1.72472 8.20481 7
      vertex 5.09878 7.84622 0
      vertex 1.72472 8.20481 0
    endloop
  endfacet
  facet normal 0.34144 0.939904 -0
    outer loop
      vertex 11.0407 6.13094 0
      vertex 8.25 7.14471 7
      vertex 11.0407 6.13094 7
    endloop
  endfacet
  facet normal 0.34144 0.939904 0
    outer loop
      vertex 8.25 7.14471 7
      vertex 11.0407 6.13094 0
      vertex 8.25 7.14471 0
    endloop
  endfacet
  facet normal -0.838505 0.544894 0
    outer loop
      vertex -16.1394 1.71527 0
      vertex -15.0735 3.35558 7
      vertex -15.0735 3.35558 0
    endloop
  endfacet
  facet normal -0.838505 0.544894 0
    outer loop
      vertex -15.0735 3.35558 7
      vertex -16.1394 1.71527 0
      vertex -16.1394 1.71527 7
    endloop
  endfacet
  facet normal 0 0 1
    outer loop
      vertex 15.0735 3.35558 7
      vertex 14.6306 1.91342 7
      vertex 15.3302 2.9605 7
    endloop
  endfacet
  facet normal -0 0 1
    outer loop
      vertex 13.205 1.4034 7
      vertex 14.25 0 7
      vertex 14.6306 1.91342 7
    endloop
  endfacet
  facet normal -0 0 1
    outer loop
      vertex 12.3329 2.74547 7
      vertex 14.6306 1.91342 7
      vertex 15.0735 3.35558 7
    endloop
  endfacet
  facet normal 0 0 1
    outer loop
      vertex 12.3329 2.74547 7
      vertex 15.0735 3.35558 7
      vertex 13.3488 4.84923 7
    endloop
  endfacet
  facet normal 0 0 1
    outer loop
      vertex 14.25 0 7
      vertex 13.205 1.4034 7
      vertex 13.5 0 7
    endloop
  endfacet
  facet normal 0 0 1
    outer loop
      vertex 14.6306 1.91342 7
      vertex 12.3329 2.74547 7
      vertex 13.205 1.4034 7
    endloop
  endfacet
  facet normal 0 0 1
    outer loop
      vertex 10.9217 3.96755 7
      vertex 13.3488 4.84923 7
      vertex 11.0407 6.13094 7
    endloop
  endfacet
  facet normal 0 0 1
    outer loop
      vertex 13.3488 4.84923 7
      vertex 10.9217 3.96755 7
      vertex 12.3329 2.74547 7
    endloop
  endfacet
  facet normal 0 0 1
    outer loop
      vertex 11.0407 6.13094 7
      vertex 9.03326 5.01623 7
      vertex 10.9217 3.96755 7
    endloop
  endfacet
  facet normal 0 0 1
    outer loop
      vertex 8.25 7.14471 7
      vertex 9.03326 5.01623 7
      vertex 11.0407 6.13094 7
    endloop
  endfacet
  facet normal 0 0 1
    outer loop
      vertex 8.25 7.14471 7
      vertex 6.75 5.84567 7
      vertex 9.03326 5.01623 7
    endloop
  endfacet
  facet normal 0 0 1
    outer loop
      vertex 5.09878 7.84622 7
      vertex 6.75 5.84567 7
      vertex 8.25 7.14471 7
    endloop
  endfacet
  facet normal 0 0 1
    outer loop
      vertex 5.09878 7.84622 7
      vertex 4.17173 6.41963 7
      vertex 6.75 5.84567 7
    endloop
  endfacet
  facet normal 0 0 1
    outer loop
      vertex 1.72472 8.20481 7
      vertex 4.17173 6.41963 7
      vertex 5.09878 7.84622 7
    endloop
  endfacet
  facet normal 0 0 1
    outer loop
      vertex 1.72472 8.20481 7
      vertex 1.41113 6.71302 7
      vertex 4.17173 6.41963 7
    endloop
  endfacet
  facet normal 0 0 1
    outer loop
      vertex 1.72472 8.20481 7
      vertex -1.41113 6.71302 7
      vertex 1.41113 6.71302 7
    endloop
  endfacet
  facet normal -0 0 1
    outer loop
      vertex -1.72472 8.20481 7
      vertex -1.41113 6.71302 7
      vertex 1.72472 8.20481 7
    endloop
  endfacet
  facet normal 0 0 1
    outer loop
      vertex -1.72472 8.20481 7
      vertex -4.17173 6.41963 7
      vertex -1.41113 6.71302 7
    endloop
  endfacet
  facet normal -0 0 1
    outer loop
      vertex -5.09878 7.84622 7
      vertex -4.17173 6.41963 7
      vertex -1.72472 8.20481 7
    endloop
  endfacet
  facet normal 0 0 1
    outer loop
      vertex -5.09878 7.84622 7
      vertex -6.75 5.84567 7
      vertex -4.17173 6.41963 7
    endloop
  endfacet
  facet normal -0 0 1
    outer loop
      vertex -8.25 7.14471 7
      vertex -6.75 5.84567 7
      vertex -5.09878 7.84622 7
    endloop
  endfacet
  facet normal 0 0 1
    outer loop
      vertex -8.25 7.14471 7
      vertex -9.03326 5.01623 7
      vertex -6.75 5.84567 7
    endloop
  endfacet
  facet normal -0 0 1
    outer loop
      vertex -11.0407 6.13094 7
      vertex -9.03326 5.01623 7
      vertex -8.25 7.14471 7
    endloop
  endfacet
  facet normal 0 0 1
    outer loop
      vertex -9.03326 5.01623 7
      vertex -11.0407 6.13094 7
      vertex -10.9217 3.96755 7
    endloop
  endfacet
  facet normal -0 0 1
    outer loop
      vertex -13.3488 4.84923 7
      vertex -10.9217 3.96755 7
      vertex -11.0407 6.13094 7
    endloop
  endfacet
  facet normal 0 0 1
    outer loop
      vertex -10.9217 3.96755 7
      vertex -13.3488 4.84923 7
      vertex -12.3329 2.74547 7
    endloop
  endfacet
  facet normal -0 0 1
    outer loop
      vertex -15.0735 3.35558 7
      vertex -12.3329 2.74547 7
      vertex -13.3488 4.84923 7
    endloop
  endfacet
  facet normal 0 0 1
    outer loop
      vertex -12.3329 2.74547 7
      vertex -15.0735 3.35558 7
      vertex -13.205 1.4034 7
    endloop
  endfacet
  facet normal -0 0 1
    outer loop
      vertex -16.1394 1.71527 7
      vertex -13.205 1.4034 7
      vertex -15.0735 3.35558 7
    endloop
  endfacet
  facet normal 0 0 1
    outer loop
      vertex 14.6306 -1.91342 7
      vertex 15.0735 -3.35558 7
      vertex 15.3302 -2.9605 7
    endloop
  endfacet
  facet normal 0 0 1
    outer loop
      vertex 13.205 -1.4034 7
      vertex 14.25 0 7
      vertex 13.5 0 7
    endloop
  endfacet
  facet normal 0 0 1
    outer loop
      vertex 14.25 0 7
      vertex 13.205 -1.4034 7
      vertex 14.6306 -1.91342 7
    endloop
  endfacet
  facet normal 0 0 1
    outer loop
      vertex 12.3329 -2.74547 7
      vertex 14.6306 -1.91342 7
      vertex 13.205 -1.4034 7
    endloop
  endfacet
  facet normal 0 0 1
    outer loop
      vertex 14.6306 -1.91342 7
      vertex 12.3329 -2.74547 7
      vertex 15.0735 -3.35558 7
    endloop
  endfacet
  facet normal 0 0 1
    outer loop
      vertex 15.0735 -3.35558 7
      vertex 12.3329 -2.74547 7
      vertex 13.3488 -4.84923 7
    endloop
  endfacet
  facet normal -0 0 1
    outer loop
      vertex 10.9217 -3.96755 7
      vertex 13.3488 -4.84923 7
      vertex 12.3329 -2.74547 7
    endloop
  endfacet
  facet normal 0 0 1
    outer loop
      vertex 13.3488 -4.84923 7
      vertex 10.9217 -3.96755 7
      vertex 11.0407 -6.13094 7
    endloop
  endfacet
  facet normal -0 0 1
    outer loop
      vertex 9.03326 -5.01623 7
      vertex 11.0407 -6.13094 7
      vertex 10.9217 -3.96755 7
    endloop
  endfacet
  facet normal 0 0 1
    outer loop
      vertex 9.03326 -5.01623 7
      vertex 8.25 -7.14471 7
      vertex 11.0407 -6.13094 7
    endloop
  endfacet
  facet normal -0 0 1
    outer loop
      vertex 6.75 -5.84567 7
      vertex 8.25 -7.14471 7
      vertex 9.03326 -5.01623 7
    endloop
  endfacet
  facet normal 0 0 1
    outer loop
      vertex 6.75 -5.84567 7
      vertex 5.09878 -7.84622 7
      vertex 8.25 -7.14471 7
    endloop
  endfacet
  facet normal -0 0 1
    outer loop
      vertex 4.17173 -6.41963 7
      vertex 5.09878 -7.84622 7
      vertex 6.75 -5.84567 7
    endloop
  endfacet
  facet normal 0 0 1
    outer loop
      vertex 4.17173 -6.41963 7
      vertex 1.72472 -8.20481 7
      vertex 5.09878 -7.84622 7
    endloop
  endfacet
  facet normal -0 0 1
    outer loop
      vertex 1.41113 -6.71302 7
      vertex 1.72472 -8.20481 7
      vertex 4.17173 -6.41963 7
    endloop
  endfacet
  facet normal -0 0 1
    outer loop
      vertex -1.41113 -6.71302 7
      vertex 1.72472 -8.20481 7
      vertex 1.41113 -6.71302 7
    endloop
  endfacet
  facet normal 0 0 1
    outer loop
      vertex -1.41113 -6.71302 7
      vertex -1.72472 -8.20481 7
      vertex 1.72472 -8.20481 7
    endloop
  endfacet
  facet normal 0 0 1
    outer loop
      vertex -4.17173 -6.41963 7
      vertex -1.72472 -8.20481 7
      vertex -1.41113 -6.71302 7
    endloop
  endfacet
  facet normal 0 0 1
    outer loop
      vertex -4.17173 -6.41963 7
      vertex -5.09878 -7.84622 7
      vertex -1.72472 -8.20481 7
    endloop
  endfacet
  facet normal 0 0 1
    outer loop
      vertex -6.75 -5.84567 7
      vertex -5.09878 -7.84622 7
      vertex -4.17173 -6.41963 7
    endloop
  endfacet
  facet normal 0 0 1
    outer loop
      vertex -6.75 -5.84567 7
      vertex -8.25 -7.14471 7
      vertex -5.09878 -7.84622 7
    endloop
  endfacet
  facet normal 0 0 1
    outer loop
      vertex -9.03326 -5.01623 7
      vertex -8.25 -7.14471 7
      vertex -6.75 -5.84567 7
    endloop
  endfacet
  facet normal 0 0 1
    outer loop
      vertex -11.0407 -6.13094 7
      vertex -9.03326 -5.01623 7
      vertex -10.9217 -3.96755 7
    endloop
  endfacet
  facet normal 0 0 1
    outer loop
      vertex -9.03326 -5.01623 7
      vertex -11.0407 -6.13094 7
      vertex -8.25 -7.14471 7
    endloop
  endfacet
  facet normal 0 0 1
    outer loop
      vertex -13.3488 -4.84923 7
      vertex -10.9217 -3.96755 7
      vertex -12.3329 -2.74547 7
    endloop
  endfacet
  facet normal 0 0 1
    outer loop
      vertex -15.0735 -3.35558 7
      vertex -12.3329 -2.74547 7
      vertex -13.205 -1.4034 7
    endloop
  endfacet
  facet normal 0 0 1
    outer loop
      vertex -10.9217 -3.96755 7
      vertex -13.3488 -4.84923 7
      vertex -11.0407 -6.13094 7
    endloop
  endfacet
  facet normal 0 0 1
    outer loop
      vertex -16.1394 -1.71527 7
      vertex -13.205 -1.4034 7
      vertex -13.5 0 7
    endloop
  endfacet
  facet normal 0 0 1
    outer loop
      vertex -13.205 1.4034 7
      vertex -16.1394 1.71527 7
      vertex -13.5 0 7
    endloop
  endfacet
  facet normal 0 0 1
    outer loop
      vertex -12.3329 -2.74547 7
      vertex -15.0735 -3.35558 7
      vertex -13.3488 -4.84923 7
    endloop
  endfacet
  facet normal 0 0 1
    outer loop
      vertex -16.5 0 7
      vertex -13.5 0 7
      vertex -16.1394 1.71527 7
    endloop
  endfacet
  facet normal 0 0 1
    outer loop
      vertex -13.205 -1.4034 7
      vertex -16.1394 -1.71527 7
      vertex -15.0735 -3.35558 7
    endloop
  endfacet
  facet normal 0 0 1
    outer loop
      vertex -13.5 0 7
      vertex -16.5 0 7
      vertex -16.1394 -1.71527 7
    endloop
  endfacet
  facet normal -0.34144 0.939904 0
    outer loop
      vertex -8.25 7.14471 0
      vertex -11.0407 6.13094 7
      vertex -8.25 7.14471 7
    endloop
  endfacet
  facet normal -0.34144 0.939904 0
    outer loop
      vertex -11.0407 6.13094 7
      vertex -8.25 7.14471 0
      vertex -11.0407 6.13094 0
    endloop
  endfacet
  facet normal -0.105683 0.9944 0
    outer loop
      vertex -1.72472 8.20481 0
      vertex -5.09878 7.84622 7
      vertex -1.72472 8.20481 7
    endloop
  endfacet
  facet normal -0.105683 0.9944 0
    outer loop
      vertex -5.09878 7.84622 7
      vertex -1.72472 8.20481 0
      vertex -5.09878 7.84622 0
    endloop
  endfacet
  facet normal 0 0 -1
    outer loop
      vertex 18.7437 0.881678 0
      vertex 16.1394 1.71527 0
      vertex 17.3366 4.6194 0
    endloop
  endfacet
  facet normal 0 0 -1
    outer loop
      vertex 16.1394 1.71527 0
      vertex 15.7145 3.53553 0
      vertex 17.3366 4.6194 0
    endloop
  endfacet
  facet normal 0 -0 -1
    outer loop
      vertex 15.7145 3.53553 0
      vertex 16.1394 1.71527 0
      vertex 15.3302 2.9605 0
    endloop
  endfacet
  facet normal 0 0 -1
    outer loop
      vertex 21.5529 0 0
      vertex 24.25 0 0
      vertex 23.8694 -1.91342 0
    endloop
  endfacet
  facet normal 0 0 -1
    outer loop
      vertex 20.4799 -1.42658 0
      vertex 23.8694 -1.91342 0
      vertex 22.7855 -3.53553 0
    endloop
  endfacet
  facet normal 0 0 -1
    outer loop
      vertex 24.25 0 0
      vertex 21.5529 0 0
      vertex 23.8694 1.91342 0
    endloop
  endfacet
  facet normal 0 0 -1
    outer loop
      vertex 20.4799 1.42658 0
      vertex 23.8694 1.91342 0
      vertex 21.5529 0 0
    endloop
  endfacet
  facet normal 0 0 -1
    outer loop
      vertex 20.4799 -1.42658 0
      vertex 22.7855 -3.53553 0
      vertex 21.1634 -4.6194 0
    endloop
  endfacet
  facet normal 0 0 -1
    outer loop
      vertex 23.8694 -1.91342 0
      vertex 20.4799 -1.42658 0
      vertex 21.5529 0 0
    endloop
  endfacet
  facet normal 0 0 -1
    outer loop
      vertex 19.25 -5 0
      vertex 20.4799 -1.42658 0
      vertex 21.1634 -4.6194 0
    endloop
  endfacet
  facet normal 0 0 -1
    outer loop
      vertex 19.25 -5 0
      vertex 18.7437 -0.881678 0
      vertex 20.4799 -1.42658 0
    endloop
  endfacet
  facet normal 0 0 -1
    outer loop
      vertex 16.1394 -1.71527 0
      vertex 18.7437 -0.881678 0
      vertex 17.3366 -4.6194 0
    endloop
  endfacet
  facet normal 0 0 -1
    outer loop
      vertex 17.3366 -4.6194 0
      vertex 18.7437 -0.881678 0
      vertex 19.25 -5 0
    endloop
  endfacet
  facet normal -0 0 -1
    outer loop
      vertex 23.8694 1.91342 0
      vertex 20.4799 1.42658 0
      vertex 22.7855 3.53553 0
    endloop
  endfacet
  facet normal -0 0 -1
    outer loop
      vertex 22.7855 3.53553 0
      vertex 20.4799 1.42658 0
      vertex 21.1634 4.6194 0
    endloop
  endfacet
  facet normal 0 0 -1
    outer loop
      vertex 20.4799 1.42658 0
      vertex 19.25 5 0
      vertex 21.1634 4.6194 0
    endloop
  endfacet
  facet normal 0 0 -1
    outer loop
      vertex 18.7437 0.881678 0
      vertex 19.25 5 0
      vertex 20.4799 1.42658 0
    endloop
  endfacet
  facet normal 0 -0 -1
    outer loop
      vertex 16.5 0 0
      vertex 18.7437 -0.881678 0
      vertex 16.1394 -1.71527 0
    endloop
  endfacet
  facet normal 0 0 -1
    outer loop
      vertex 16.1394 1.71527 0
      vertex 18.7437 0.881678 0
      vertex 16.5 0 0
    endloop
  endfacet
  facet normal 0 0 -1
    outer loop
      vertex 18.7437 0.881678 0
      vertex 17.3366 4.6194 0
      vertex 19.25 5 0
    endloop
  endfacet
  facet normal 0 0 -1
    outer loop
      vertex 18.7437 -0.881678 0
      vertex 16.5 0 0
      vertex 18.7437 0.881678 0
    endloop
  endfacet
  facet normal 0 0 -1
    outer loop
      vertex 15.7145 -3.53553 0
      vertex 16.1394 -1.71527 0
      vertex 17.3366 -4.6194 0
    endloop
  endfacet
  facet normal 0 0 -1
    outer loop
      vertex 16.1394 -1.71527 0
      vertex 15.7145 -3.53553 0
      vertex 15.3302 -2.9605 0
    endloop
  endfacet
  facet normal 0 0 -1
    outer loop
      vertex 13.5 0 0
      vertex 16.5 0 0
      vertex 16.1394 -1.71527 0
    endloop
  endfacet
  facet normal 0 0 -1
    outer loop
      vertex 13.205 -1.4034 0
      vertex 16.1394 -1.71527 0
      vertex 15.3302 -2.9605 0
    endloop
  endfacet
  facet normal 0 0 -1
    outer loop
      vertex 16.5 0 0
      vertex 13.5 0 0
      vertex 16.1394 1.71527 0
    endloop
  endfacet
  facet normal 0 0 -1
    outer loop
      vertex 13.205 -1.4034 0
      vertex 15.3302 -2.9605 0
      vertex 15.0735 -3.35558 0
    endloop
  endfacet
  facet normal 0 0 -1
    outer loop
      vertex 13.205 1.4034 0
      vertex 16.1394 1.71527 0
      vertex 13.5 0 0
    endloop
  endfacet
  facet normal -0 0 -1
    outer loop
      vertex 16.1394 1.71527 0
      vertex 13.205 1.4034 0
      vertex 15.3302 2.9605 0
    endloop
  endfacet
  facet normal 0 0 -1
    outer loop
      vertex 12.3329 -2.74547 0
      vertex 15.0735 -3.35558 0
      vertex 13.3488 -4.84923 0
    endloop
  endfacet
  facet normal 0 0 -1
    outer loop
      vertex 16.1394 -1.71527 0
      vertex 13.205 -1.4034 0
      vertex 13.5 0 0
    endloop
  endfacet
  facet normal 0 0 -1
    outer loop
      vertex 15.0735 -3.35558 0
      vertex 12.3329 -2.74547 0
      vertex 13.205 -1.4034 0
    endloop
  endfacet
  facet normal 0 0 -1
    outer loop
      vertex 10.9217 -3.96755 0
      vertex 13.3488 -4.84923 0
      vertex 11.0407 -6.13094 0
    endloop
  endfacet
  facet normal 0 0 -1
    outer loop
      vertex 13.3488 -4.84923 0
      vertex 10.9217 -3.96755 0
      vertex 12.3329 -2.74547 0
    endloop
  endfacet
  facet normal 0 0 -1
    outer loop
      vertex 11.0407 -6.13094 0
      vertex 9.03326 -5.01623 0
      vertex 10.9217 -3.96755 0
    endloop
  endfacet
  facet normal 0 0 -1
    outer loop
      vertex 8.25 -7.14471 0
      vertex 9.03326 -5.01623 0
      vertex 11.0407 -6.13094 0
    endloop
  endfacet
  facet normal 0 0 -1
    outer loop
      vertex 8.25 -7.14471 0
      vertex 6.75 -5.84567 0
      vertex 9.03326 -5.01623 0
    endloop
  endfacet
  facet normal 0 0 -1
    outer loop
      vertex 5.09878 -7.84622 0
      vertex 6.75 -5.84567 0
      vertex 8.25 -7.14471 0
    endloop
  endfacet
  facet normal 0 0 -1
    outer loop
      vertex 5.09878 -7.84622 0
      vertex 4.17173 -6.41963 0
      vertex 6.75 -5.84567 0
    endloop
  endfacet
  facet normal 0 0 -1
    outer loop
      vertex 1.72472 -8.20481 0
      vertex 4.17173 -6.41963 0
      vertex 5.09878 -7.84622 0
    endloop
  endfacet
  facet normal 0 0 -1
    outer loop
      vertex 1.72472 -8.20481 0
      vertex 1.41113 -6.71302 0
      vertex 4.17173 -6.41963 0
    endloop
  endfacet
  facet normal 0 0 -1
    outer loop
      vertex 1.72472 -8.20481 0
      vertex -1.41113 -6.71302 0
      vertex 1.41113 -6.71302 0
    endloop
  endfacet
  facet normal 0 0 -1
    outer loop
      vertex -1.72472 -8.20481 0
      vertex -1.41113 -6.71302 0
      vertex 1.72472 -8.20481 0
    endloop
  endfacet
  facet normal 0 0 -1
    outer loop
      vertex -1.72472 -8.20481 0
      vertex -4.17173 -6.41963 0
      vertex -1.41113 -6.71302 0
    endloop
  endfacet
  facet normal 0 0 -1
    outer loop
      vertex -5.09878 -7.84622 0
      vertex -4.17173 -6.41963 0
      vertex -1.72472 -8.20481 0
    endloop
  endfacet
  facet normal 0 0 -1
    outer loop
      vertex -5.09878 -7.84622 0
      vertex -6.75 -5.84567 0
      vertex -4.17173 -6.41963 0
    endloop
  endfacet
  facet normal 0 0 -1
    outer loop
      vertex -8.25 -7.14471 0
      vertex -6.75 -5.84567 0
      vertex -5.09878 -7.84622 0
    endloop
  endfacet
  facet normal 0 0 -1
    outer loop
      vertex -8.25 -7.14471 0
      vertex -9.03326 -5.01623 0
      vertex -6.75 -5.84567 0
    endloop
  endfacet
  facet normal 0 0 -1
    outer loop
      vertex -11.0407 -6.13094 0
      vertex -9.03326 -5.01623 0
      vertex -8.25 -7.14471 0
    endloop
  endfacet
  facet normal -0 0 -1
    outer loop
      vertex -9.03326 -5.01623 0
      vertex -11.0407 -6.13094 0
      vertex -10.9217 -3.96755 0
    endloop
  endfacet
  facet normal 0 0 -1
    outer loop
      vertex -13.3488 -4.84923 0
      vertex -10.9217 -3.96755 0
      vertex -11.0407 -6.13094 0
    endloop
  endfacet
  facet normal -0 0 -1
    outer loop
      vertex -10.9217 -3.96755 0
      vertex -13.3488 -4.84923 0
      vertex -12.3329 -2.74547 0
    endloop
  endfacet
  facet normal 0 0 -1
    outer loop
      vertex -15.0735 -3.35558 0
      vertex -12.3329 -2.74547 0
      vertex -13.3488 -4.84923 0
    endloop
  endfacet
  facet normal -0 0 -1
    outer loop
      vertex -12.3329 -2.74547 0
      vertex -15.0735 -3.35558 0
      vertex -13.205 -1.4034 0
    endloop
  endfacet
  facet normal 0 0 -1
    outer loop
      vertex -16.1394 -1.71527 0
      vertex -13.205 -1.4034 0
      vertex -15.0735 -3.35558 0
    endloop
  endfacet
  facet normal -0 0 -1
    outer loop
      vertex 15.3302 2.9605 0
      vertex 13.205 1.4034 0
      vertex 15.0735 3.35558 0
    endloop
  endfacet
  facet normal 0 0 -1
    outer loop
      vertex 12.3329 2.74547 0
      vertex 15.0735 3.35558 0
      vertex 13.205 1.4034 0
    endloop
  endfacet
  facet normal -0 0 -1
    outer loop
      vertex 15.0735 3.35558 0
      vertex 12.3329 2.74547 0
      vertex 13.3488 4.84923 0
    endloop
  endfacet
  facet normal 0 0 -1
    outer loop
      vertex 10.9217 3.96755 0
      vertex 13.3488 4.84923 0
      vertex 12.3329 2.74547 0
    endloop
  endfacet
  facet normal -0 0 -1
    outer loop
      vertex 13.3488 4.84923 0
      vertex 10.9217 3.96755 0
      vertex 11.0407 6.13094 0
    endloop
  endfacet
  facet normal 0 0 -1
    outer loop
      vertex 9.03326 5.01623 0
      vertex 11.0407 6.13094 0
      vertex 10.9217 3.96755 0
    endloop
  endfacet
  facet normal 0 0 -1
    outer loop
      vertex 9.03326 5.01623 0
      vertex 8.25 7.14471 0
      vertex 11.0407 6.13094 0
    endloop
  endfacet
  facet normal 0 0 -1
    outer loop
      vertex 6.75 5.84567 0
      vertex 8.25 7.14471 0
      vertex 9.03326 5.01623 0
    endloop
  endfacet
  facet normal 0 0 -1
    outer loop
      vertex 6.75 5.84567 0
      vertex 5.09878 7.84622 0
      vertex 8.25 7.14471 0
    endloop
  endfacet
  facet normal 0 0 -1
    outer loop
      vertex 4.17173 6.41963 0
      vertex 5.09878 7.84622 0
      vertex 6.75 5.84567 0
    endloop
  endfacet
  facet normal 0 0 -1
    outer loop
      vertex 4.17173 6.41963 0
      vertex 1.72472 8.20481 0
      vertex 5.09878 7.84622 0
    endloop
  endfacet
  facet normal 0 0 -1
    outer loop
      vertex 1.41113 6.71302 0
      vertex 1.72472 8.20481 0
      vertex 4.17173 6.41963 0
    endloop
  endfacet
  facet normal 0 0 -1
    outer loop
      vertex -1.41113 6.71302 0
      vertex 1.72472 8.20481 0
      vertex 1.41113 6.71302 0
    endloop
  endfacet
  facet normal 0 0 -1
    outer loop
      vertex -1.41113 6.71302 0
      vertex -1.72472 8.20481 0
      vertex 1.72472 8.20481 0
    endloop
  endfacet
  facet normal 0 0 -1
    outer loop
      vertex -4.17173 6.41963 0
      vertex -1.72472 8.20481 0
      vertex -1.41113 6.71302 0
    endloop
  endfacet
  facet normal 0 0 -1
    outer loop
      vertex -4.17173 6.41963 0
      vertex -5.09878 7.84622 0
      vertex -1.72472 8.20481 0
    endloop
  endfacet
  facet normal 0 0 -1
    outer loop
      vertex -6.75 5.84567 0
      vertex -5.09878 7.84622 0
      vertex -4.17173 6.41963 0
    endloop
  endfacet
  facet normal 0 0 -1
    outer loop
      vertex -6.75 5.84567 0
      vertex -8.25 7.14471 0
      vertex -5.09878 7.84622 0
    endloop
  endfacet
  facet normal 0 0 -1
    outer loop
      vertex -9.03326 5.01623 0
      vertex -8.25 7.14471 0
      vertex -6.75 5.84567 0
    endloop
  endfacet
  facet normal 0 0 -1
    outer loop
      vertex -11.0407 6.13094 0
      vertex -9.03326 5.01623 0
      vertex -10.9217 3.96755 0
    endloop
  endfacet
  facet normal 0 0 -1
    outer loop
      vertex -9.03326 5.01623 0
      vertex -11.0407 6.13094 0
      vertex -8.25 7.14471 0
    endloop
  endfacet
  facet normal 0 0 -1
    outer loop
      vertex -13.3488 4.84923 0
      vertex -10.9217 3.96755 0
      vertex -12.3329 2.74547 0
    endloop
  endfacet
  facet normal 0 0 -1
    outer loop
      vertex -15.0735 3.35558 0
      vertex -12.3329 2.74547 0
      vertex -13.205 1.4034 0
    endloop
  endfacet
  facet normal 0 0 -1
    outer loop
      vertex -10.9217 3.96755 0
      vertex -13.3488 4.84923 0
      vertex -11.0407 6.13094 0
    endloop
  endfacet
  facet normal 0 0 -1
    outer loop
      vertex -16.1394 1.71527 0
      vertex -13.205 1.4034 0
      vertex -13.5 0 0
    endloop
  endfacet
  facet normal -0 0 -1
    outer loop
      vertex -13.205 -1.4034 0
      vertex -16.1394 -1.71527 0
      vertex -13.5 0 0
    endloop
  endfacet
  facet normal 0 0 -1
    outer loop
      vertex -12.3329 2.74547 0
      vertex -15.0735 3.35558 0
      vertex -13.3488 4.84923 0
    endloop
  endfacet
  facet normal 0 0 -1
    outer loop
      vertex -16.5 0 0
      vertex -13.5 0 0
      vertex -16.1394 -1.71527 0
    endloop
  endfacet
  facet normal 0 0 -1
    outer loop
      vertex -13.205 1.4034 0
      vertex -16.1394 1.71527 0
      vertex -15.0735 3.35558 0
    endloop
  endfacet
  facet normal 0 0 -1
    outer loop
      vertex -13.5 0 0
      vertex -16.5 0 0
      vertex -16.1394 1.71527 0
    endloop
  endfacet
  facet normal 0.105683 -0.9944 0
    outer loop
      vertex 1.72472 -8.20481 0
      vertex 5.09878 -7.84622 7
      vertex 1.72472 -8.20481 7
    endloop
  endfacet
  facet normal 0.105683 -0.9944 0
    outer loop
      vertex 5.09878 -7.84622 7
      vertex 1.72472 -8.20481 0
      vertex 5.09878 -7.84622 0
    endloop
  endfacet
  facet normal 0.654654 -0.755929 0
    outer loop
      vertex 13.3488 -4.84923 0
      vertex 15.0735 -3.35558 7
      vertex 13.3488 -4.84923 7
    endloop
  endfacet
  facet normal 0.654654 -0.755929 0
    outer loop
      vertex 15.0735 -3.35558 7
      vertex 13.3488 -4.84923 0
      vertex 15.0735 -3.35558 0
    endloop
  endfacet
  facet normal -0.654654 -0.755929 0
    outer loop
      vertex -15.0735 -3.35558 0
      vertex -13.3488 -4.84923 7
      vertex -15.0735 -3.35558 7
    endloop
  endfacet
  facet normal -0.654654 -0.755929 -0
    outer loop
      vertex -13.3488 -4.84923 7
      vertex -15.0735 -3.35558 0
      vertex -13.3488 -4.84923 0
    endloop
  endfacet
  facet normal -0.978612 -0.205713 0
    outer loop
      vertex -16.1394 -1.71527 0
      vertex -16.5 0 7
      vertex -16.5 0 0
    endloop
  endfacet
  facet normal -0.978612 -0.205713 0
    outer loop
      vertex -16.5 0 7
      vertex -16.1394 -1.71527 0
      vertex -16.1394 -1.71527 7
    endloop
  endfacet
  facet normal 0.34144 -0.939904 0
    outer loop
      vertex 8.25 -7.14471 0
      vertex 11.0407 -6.13094 7
      vertex 8.25 -7.14471 7
    endloop
  endfacet
  facet normal 0.34144 -0.939904 0
    outer loop
      vertex 11.0407 -6.13094 7
      vertex 8.25 -7.14471 0
      vertex 11.0407 -6.13094 0
    endloop
  endfacet
  facet normal 0.217295 -0.976106 0
    outer loop
      vertex 5.09878 -7.84622 0
      vertex 8.25 -7.14471 7
      vertex 5.09878 -7.84622 7
    endloop
  endfacet
  facet normal 0.217295 -0.976106 0
    outer loop
      vertex 8.25 -7.14471 7
      vertex 5.09878 -7.84622 0
      vertex 8.25 -7.14471 0
    endloop
  endfacet
  facet normal -0.485476 -0.87425 0
    outer loop
      vertex -13.3488 -4.84923 0
      vertex -11.0407 -6.13094 7
      vertex -13.3488 -4.84923 7
    endloop
  endfacet
  facet normal -0.485476 -0.87425 -0
    outer loop
      vertex -11.0407 -6.13094 7
      vertex -13.3488 -4.84923 0
      vertex -11.0407 -6.13094 0
    endloop
  endfacet
  facet normal -0.838505 -0.544894 0
    outer loop
      vertex -15.0735 -3.35558 0
      vertex -16.1394 -1.71527 7
      vertex -16.1394 -1.71527 0
    endloop
  endfacet
  facet normal -0.838505 -0.544894 0
    outer loop
      vertex -16.1394 -1.71527 7
      vertex -15.0735 -3.35558 0
      vertex -15.0735 -3.35558 7
    endloop
  endfacet
  facet normal 0.485476 -0.87425 0
    outer loop
      vertex 11.0407 -6.13094 0
      vertex 13.3488 -4.84923 7
      vertex 11.0407 -6.13094 7
    endloop
  endfacet
  facet normal 0.485476 -0.87425 0
    outer loop
      vertex 13.3488 -4.84923 7
      vertex 11.0407 -6.13094 0
      vertex 13.3488 -4.84923 0
    endloop
  endfacet
  facet normal -0.34144 -0.939904 0
    outer loop
      vertex -11.0407 -6.13094 0
      vertex -8.25 -7.14471 7
      vertex -11.0407 -6.13094 7
    endloop
  endfacet
  facet normal -0.34144 -0.939904 -0
    outer loop
      vertex -8.25 -7.14471 7
      vertex -11.0407 -6.13094 0
      vertex -8.25 -7.14471 0
    endloop
  endfacet
  facet normal -0.217295 -0.976106 0
    outer loop
      vertex -8.25 -7.14471 0
      vertex -5.09878 -7.84622 7
      vertex -8.25 -7.14471 7
    endloop
  endfacet
  facet normal -0.217295 -0.976106 -0
    outer loop
      vertex -5.09878 -7.84622 7
      vertex -8.25 -7.14471 0
      vertex -5.09878 -7.84622 0
    endloop
  endfacet
  facet normal -0.105683 -0.9944 0
    outer loop
      vertex -5.09878 -7.84622 0
      vertex -1.72472 -8.20481 7
      vertex -5.09878 -7.84622 7
    endloop
  endfacet
  facet normal -0.105683 -0.9944 -0
    outer loop
      vertex -1.72472 -8.20481 7
      vertex -5.09878 -7.84622 0
      vertex -1.72472 -8.20481 0
    endloop
  endfacet
  facet normal -0.978612 -0.205713 0
    outer loop
      vertex 13.5 0 0
      vertex 13.205 1.4034 7
      vertex 13.205 1.4034 0
    endloop
  endfacet
  facet normal -0.978612 -0.205713 0
    outer loop
      vertex 13.205 1.4034 7
      vertex 13.5 0 0
      vertex 13.5 0 7
    endloop
  endfacet
  facet normal 0.978612 -0.205713 0
    outer loop
      vertex -13.5 0 7
      vertex -13.205 1.4034 0
      vertex -13.205 1.4034 7
    endloop
  endfacet
  facet normal 0.978612 -0.205713 0
    outer loop
      vertex -13.205 1.4034 0
      vertex -13.5 0 7
      vertex -13.5 0 0
    endloop
  endfacet
  facet normal 0 -1 0
    outer loop
      vertex -1.41113 6.71302 0
      vertex 1.41113 6.71302 7
      vertex -1.41113 6.71302 7
    endloop
  endfacet
  facet normal 0 -1 -0
    outer loop
      vertex 1.41113 6.71302 7
      vertex -1.41113 6.71302 0
      vertex 1.41113 6.71302 0
    endloop
  endfacet
  facet normal 0 1 -0
    outer loop
      vertex 1.41113 -6.71302 0
      vertex -1.41113 -6.71302 7
      vertex 1.41113 -6.71302 7
    endloop
  endfacet
  facet normal 0 1 0
    outer loop
      vertex -1.41113 -6.71302 7
      vertex 1.41113 -6.71302 0
      vertex -1.41113 -6.71302 0
    endloop
  endfacet
  facet normal -0.34144 -0.939904 0
    outer loop
      vertex 6.75 5.84567 0
      vertex 9.03326 5.01623 7
      vertex 6.75 5.84567 7
    endloop
  endfacet
  facet normal -0.34144 -0.939904 -0
    outer loop
      vertex 9.03326 5.01623 7
      vertex 6.75 5.84567 0
      vertex 9.03326 5.01623 0
    endloop
  endfacet
  facet normal -0.217295 -0.976106 0
    outer loop
      vertex 4.17173 6.41963 0
      vertex 6.75 5.84567 7
      vertex 4.17173 6.41963 7
    endloop
  endfacet
  facet normal -0.217295 -0.976106 -0
    outer loop
      vertex 6.75 5.84567 7
      vertex 4.17173 6.41963 0
      vertex 6.75 5.84567 0
    endloop
  endfacet
  facet normal 0.485476 -0.87425 0
    outer loop
      vertex -10.9217 3.96755 0
      vertex -9.03326 5.01623 7
      vertex -10.9217 3.96755 7
    endloop
  endfacet
  facet normal 0.485476 -0.87425 0
    outer loop
      vertex -9.03326 5.01623 7
      vertex -10.9217 3.96755 0
      vertex -9.03326 5.01623 0
    endloop
  endfacet
  facet normal 0.217295 -0.976106 0
    outer loop
      vertex -6.75 5.84567 0
      vertex -4.17173 6.41963 7
      vertex -6.75 5.84567 7
    endloop
  endfacet
  facet normal 0.217295 -0.976106 0
    outer loop
      vertex -4.17173 6.41963 7
      vertex -6.75 5.84567 0
      vertex -4.17173 6.41963 0
    endloop
  endfacet
  facet normal -0.838505 0.544894 0
    outer loop
      vertex 12.3329 -2.74547 0
      vertex 13.205 -1.4034 7
      vertex 13.205 -1.4034 0
    endloop
  endfacet
  facet normal -0.838505 0.544894 0
    outer loop
      vertex 13.205 -1.4034 7
      vertex 12.3329 -2.74547 0
      vertex 12.3329 -2.74547 7
    endloop
  endfacet
  facet normal -0.654654 -0.755929 0
    outer loop
      vertex 10.9217 3.96755 0
      vertex 12.3329 2.74547 7
      vertex 10.9217 3.96755 7
    endloop
  endfacet
  facet normal -0.654654 -0.755929 -0
    outer loop
      vertex 12.3329 2.74547 7
      vertex 10.9217 3.96755 0
      vertex 12.3329 2.74547 0
    endloop
  endfacet
  facet normal -0.838505 -0.544894 0
    outer loop
      vertex 13.205 1.4034 0
      vertex 12.3329 2.74547 7
      vertex 12.3329 2.74547 0
    endloop
  endfacet
  facet normal -0.838505 -0.544894 0
    outer loop
      vertex 12.3329 2.74547 7
      vertex 13.205 1.4034 0
      vertex 13.205 1.4034 7
    endloop
  endfacet
  facet normal -0.485476 -0.87425 0
    outer loop
      vertex 9.03326 5.01623 0
      vertex 10.9217 3.96755 7
      vertex 9.03326 5.01623 7
    endloop
  endfacet
  facet normal -0.485476 -0.87425 -0
    outer loop
      vertex 10.9217 3.96755 7
      vertex 9.03326 5.01623 0
      vertex 10.9217 3.96755 0
    endloop
  endfacet
  facet normal -0.105683 -0.9944 0
    outer loop
      vertex 1.41113 6.71302 0
      vertex 4.17173 6.41963 7
      vertex 1.41113 6.71302 7
    endloop
  endfacet
  facet normal -0.105683 -0.9944 -0
    outer loop
      vertex 4.17173 6.41963 7
      vertex 1.41113 6.71302 0
      vertex 4.17173 6.41963 0
    endloop
  endfacet
  facet normal 0.654654 -0.755929 0
    outer loop
      vertex -12.3329 2.74547 0
      vertex -10.9217 3.96755 7
      vertex -12.3329 2.74547 7
    endloop
  endfacet
  facet normal 0.654654 -0.755929 0
    outer loop
      vertex -10.9217 3.96755 7
      vertex -12.3329 2.74547 0
      vertex -10.9217 3.96755 0
    endloop
  endfacet
  facet normal 0.838505 -0.544894 0
    outer loop
      vertex -13.205 1.4034 7
      vertex -12.3329 2.74547 0
      vertex -12.3329 2.74547 7
    endloop
  endfacet
  facet normal 0.838505 -0.544894 0
    outer loop
      vertex -12.3329 2.74547 0
      vertex -13.205 1.4034 7
      vertex -13.205 1.4034 0
    endloop
  endfacet
  facet normal 0.34144 -0.939904 0
    outer loop
      vertex -9.03326 5.01623 0
      vertex -6.75 5.84567 7
      vertex -9.03326 5.01623 7
    endloop
  endfacet
  facet normal 0.34144 -0.939904 0
    outer loop
      vertex -6.75 5.84567 7
      vertex -9.03326 5.01623 0
      vertex -6.75 5.84567 0
    endloop
  endfacet
  facet normal 0.105683 -0.9944 0
    outer loop
      vertex -4.17173 6.41963 0
      vertex -1.41113 6.71302 7
      vertex -4.17173 6.41963 7
    endloop
  endfacet
  facet normal 0.105683 -0.9944 0
    outer loop
      vertex -1.41113 6.71302 7
      vertex -4.17173 6.41963 0
      vertex -1.41113 6.71302 0
    endloop
  endfacet
  facet normal -0.978612 0.205713 0
    outer loop
      vertex 13.205 -1.4034 0
      vertex 13.5 0 7
      vertex 13.5 0 0
    endloop
  endfacet
  facet normal -0.978612 0.205713 0
    outer loop
      vertex 13.5 0 7
      vertex 13.205 -1.4034 0
      vertex 13.205 -1.4034 7
    endloop
  endfacet
  facet normal -0.105683 0.9944 0
    outer loop
      vertex 4.17173 -6.41963 0
      vertex 1.41113 -6.71302 7
      vertex 4.17173 -6.41963 7
    endloop
  endfacet
  facet normal -0.105683 0.9944 0
    outer loop
      vertex 1.41113 -6.71302 7
      vertex 4.17173 -6.41963 0
      vertex 1.41113 -6.71302 0
    endloop
  endfacet
  facet normal -0.654654 0.755929 0
    outer loop
      vertex 12.3329 -2.74547 0
      vertex 10.9217 -3.96755 7
      vertex 12.3329 -2.74547 7
    endloop
  endfacet
  facet normal -0.654654 0.755929 0
    outer loop
      vertex 10.9217 -3.96755 7
      vertex 12.3329 -2.74547 0
      vertex 10.9217 -3.96755 0
    endloop
  endfacet
  facet normal -0.34144 0.939904 0
    outer loop
      vertex 9.03326 -5.01623 0
      vertex 6.75 -5.84567 7
      vertex 9.03326 -5.01623 7
    endloop
  endfacet
  facet normal -0.34144 0.939904 0
    outer loop
      vertex 6.75 -5.84567 7
      vertex 9.03326 -5.01623 0
      vertex 6.75 -5.84567 0
    endloop
  endfacet
  facet normal -0.217295 0.976106 0
    outer loop
      vertex 6.75 -5.84567 0
      vertex 4.17173 -6.41963 7
      vertex 6.75 -5.84567 7
    endloop
  endfacet
  facet normal -0.217295 0.976106 0
    outer loop
      vertex 4.17173 -6.41963 7
      vertex 6.75 -5.84567 0
      vertex 4.17173 -6.41963 0
    endloop
  endfacet
  facet normal 0.485476 0.87425 -0
    outer loop
      vertex -9.03326 -5.01623 0
      vertex -10.9217 -3.96755 7
      vertex -9.03326 -5.01623 7
    endloop
  endfacet
  facet normal 0.485476 0.87425 0
    outer loop
      vertex -10.9217 -3.96755 7
      vertex -9.03326 -5.01623 0
      vertex -10.9217 -3.96755 0
    endloop
  endfacet
  facet normal 0.654654 0.755929 -0
    outer loop
      vertex -10.9217 -3.96755 0
      vertex -12.3329 -2.74547 7
      vertex -10.9217 -3.96755 7
    endloop
  endfacet
  facet normal 0.654654 0.755929 0
    outer loop
      vertex -12.3329 -2.74547 7
      vertex -10.9217 -3.96755 0
      vertex -12.3329 -2.74547 0
    endloop
  endfacet
  facet normal 0.838505 0.544894 0
    outer loop
      vertex -12.3329 -2.74547 7
      vertex -13.205 -1.4034 0
      vertex -13.205 -1.4034 7
    endloop
  endfacet
  facet normal 0.838505 0.544894 0
    outer loop
      vertex -13.205 -1.4034 0
      vertex -12.3329 -2.74547 7
      vertex -12.3329 -2.74547 0
    endloop
  endfacet
  facet normal 0.978612 0.205713 0
    outer loop
      vertex -13.205 -1.4034 7
      vertex -13.5 0 0
      vertex -13.5 0 7
    endloop
  endfacet
  facet normal 0.978612 0.205713 0
    outer loop
      vertex -13.5 0 0
      vertex -13.205 -1.4034 7
      vertex -13.205 -1.4034 0
    endloop
  endfacet
  facet normal -0.485476 0.87425 0
    outer loop
      vertex 10.9217 -3.96755 0
      vertex 9.03326 -5.01623 7
      vertex 10.9217 -3.96755 7
    endloop
  endfacet
  facet normal -0.485476 0.87425 0
    outer loop
      vertex 9.03326 -5.01623 7
      vertex 10.9217 -3.96755 0
      vertex 9.03326 -5.01623 0
    endloop
  endfacet
  facet normal 0.34144 0.939904 -0
    outer loop
      vertex -6.75 -5.84567 0
      vertex -9.03326 -5.01623 7
      vertex -6.75 -5.84567 7
    endloop
  endfacet
  facet normal 0.34144 0.939904 0
    outer loop
      vertex -9.03326 -5.01623 7
      vertex -6.75 -5.84567 0
      vertex -9.03326 -5.01623 0
    endloop
  endfacet
  facet normal 0.217295 0.976106 -0
    outer loop
      vertex -4.17173 -6.41963 0
      vertex -6.75 -5.84567 7
      vertex -4.17173 -6.41963 7
    endloop
  endfacet
  facet normal 0.217295 0.976106 0
    outer loop
      vertex -6.75 -5.84567 7
      vertex -4.17173 -6.41963 0
      vertex -6.75 -5.84567 0
    endloop
  endfacet
  facet normal 0.105683 0.9944 -0
    outer loop
      vertex -1.41113 -6.71302 0
      vertex -4.17173 -6.41963 7
      vertex -1.41113 -6.71302 7
    endloop
  endfacet
  facet normal 0.105683 0.9944 0
    outer loop
      vertex -4.17173 -6.41963 7
      vertex -1.41113 -6.71302 0
      vertex -4.17173 -6.41963 0
    endloop
  endfacet
  facet normal 0.980785 0.195091 0
    outer loop
      vertex 24.25 0 10
      vertex 23.8694 1.91342 0
      vertex 23.8694 1.91342 10
    endloop
  endfacet
  facet normal 0.980785 0.195091 0
    outer loop
      vertex 23.8694 1.91342 0
      vertex 24.25 0 10
      vertex 24.25 0 0
    endloop
  endfacet
  facet normal -0.195091 0.980785 0
    outer loop
      vertex 19.25 5 0
      vertex 17.3366 4.6194 10
      vertex 19.25 5 10
    endloop
  endfacet
  facet normal -0.195091 0.980785 0
    outer loop
      vertex 17.3366 4.6194 10
      vertex 19.25 5 0
      vertex 17.3366 4.6194 0
    endloop
  endfacet
  facet normal 0.195091 -0.980785 0
    outer loop
      vertex 19.25 -5 0
      vertex 21.1634 -4.6194 10
      vertex 19.25 -5 10
    endloop
  endfacet
  facet normal 0.195091 -0.980785 0
    outer loop
      vertex 21.1634 -4.6194 10
      vertex 19.25 -5 0
      vertex 21.1634 -4.6194 0
    endloop
  endfacet
  facet normal 0.55557 -0.83147 0
    outer loop
      vertex 21.1634 -4.6194 0
      vertex 22.7855 -3.53553 10
      vertex 21.1634 -4.6194 10
    endloop
  endfacet
  facet normal 0.55557 -0.83147 0
    outer loop
      vertex 22.7855 -3.53553 10
      vertex 21.1634 -4.6194 0
      vertex 22.7855 -3.53553 0
    endloop
  endfacet
  facet normal 0.55557 0.83147 -0
    outer loop
      vertex 22.7855 3.53553 0
      vertex 21.1634 4.6194 10
      vertex 22.7855 3.53553 10
    endloop
  endfacet
  facet normal 0.55557 0.83147 0
    outer loop
      vertex 21.1634 4.6194 10
      vertex 22.7855 3.53553 0
      vertex 21.1634 4.6194 0
    endloop
  endfacet
  facet normal 0.83147 0.55557 0
    outer loop
      vertex 23.8694 1.91342 10
      vertex 22.7855 3.53553 0
      vertex 22.7855 3.53553 10
    endloop
  endfacet
  facet normal 0.83147 0.55557 0
    outer loop
      vertex 22.7855 3.53553 0
      vertex 23.8694 1.91342 10
      vertex 23.8694 1.91342 0
    endloop
  endfacet
  facet normal 0.195091 0.980785 -0
    outer loop
      vertex 21.1634 4.6194 0
      vertex 19.25 5 10
      vertex 21.1634 4.6194 10
    endloop
  endfacet
  facet normal 0.195091 0.980785 0
    outer loop
      vertex 19.25 5 10
      vertex 21.1634 4.6194 0
      vertex 19.25 5 0
    endloop
  endfacet
  facet normal -0.83147 0.55557 0
    outer loop
      vertex 15.3302 2.9605 7
      vertex 15.7145 3.53553 0
      vertex 15.3302 2.9605 0
    endloop
  endfacet
  facet normal -0.83147 0.55557 0
    outer loop
      vertex 15.7145 3.53553 0
      vertex 15.3302 2.9605 7
      vertex 15.7145 3.53553 10
    endloop
  endfacet
  facet normal -0.83147 0.55557 0
    outer loop
      vertex 14.6306 1.91342 10
      vertex 15.3302 2.9605 7
      vertex 14.6306 1.91342 7
    endloop
  endfacet
  facet normal -0.83147 0.55557 -1.09419e-07
    outer loop
      vertex 15.3302 2.9605 7
      vertex 14.6306 1.91342 10
      vertex 15.7145 3.53553 10
    endloop
  endfacet
  facet normal -0.980785 0.19509 0
    outer loop
      vertex 14.25 0 7
      vertex 14.6306 1.91342 10
      vertex 14.6306 1.91342 7
    endloop
  endfacet
  facet normal -0.980785 0.19509 0
    outer loop
      vertex 14.6306 1.91342 10
      vertex 14.25 0 7
      vertex 14.25 0 10
    endloop
  endfacet
  facet normal 0 0 1
    outer loop
      vertex 18.8734 0 10
      vertex 24.25 0 10
      vertex 23.8694 1.91342 10
    endloop
  endfacet
  facet normal 0 0 1
    outer loop
      vertex 18.8734 0 10
      vertex 23.8694 1.91342 10
      vertex 22.7855 3.53553 10
    endloop
  endfacet
  facet normal 0 0 1
    outer loop
      vertex 24.25 0 10
      vertex 18.8734 0 10
      vertex 23.8694 -1.91342 10
    endloop
  endfacet
  facet normal 0 0 1
    outer loop
      vertex 18.8734 0 10
      vertex 22.7855 3.53553 10
      vertex 21.1634 4.6194 10
    endloop
  endfacet
  facet normal 0 0 1
    outer loop
      vertex 23.8694 -1.91342 10
      vertex 18.8734 0 10
      vertex 22.7855 -3.53553 10
    endloop
  endfacet
  facet normal 0 0 1
    outer loop
      vertex 17.8004 1.42658 10
      vertex 21.1634 4.6194 10
      vertex 19.25 5 10
    endloop
  endfacet
  facet normal 0 0 1
    outer loop
      vertex 22.7855 -3.53553 10
      vertex 18.8734 0 10
      vertex 21.1634 -4.6194 10
    endloop
  endfacet
  facet normal -0 0 1
    outer loop
      vertex 17.8004 -1.42658 10
      vertex 21.1634 -4.6194 10
      vertex 18.8734 0 10
    endloop
  endfacet
  facet normal 0 0 1
    outer loop
      vertex 21.1634 4.6194 10
      vertex 17.8004 1.42658 10
      vertex 18.8734 0 10
    endloop
  endfacet
  facet normal -0 0 1
    outer loop
      vertex 17.3366 4.6194 10
      vertex 17.8004 1.42658 10
      vertex 19.25 5 10
    endloop
  endfacet
  facet normal -0 0 1
    outer loop
      vertex 15.7145 3.53553 10
      vertex 17.8004 1.42658 10
      vertex 17.3366 4.6194 10
    endloop
  endfacet
  facet normal -0 0 1
    outer loop
      vertex 14.6306 1.91342 10
      vertex 16.0642 0.881678 10
      vertex 15.7145 3.53553 10
    endloop
  endfacet
  facet normal 0 0 1
    outer loop
      vertex 17.8004 1.42658 10
      vertex 15.7145 3.53553 10
      vertex 16.0642 0.881678 10
    endloop
  endfacet
  facet normal 0 0 1
    outer loop
      vertex 21.1634 -4.6194 10
      vertex 17.8004 -1.42658 10
      vertex 19.25 -5 10
    endloop
  endfacet
  facet normal 0 0 1
    outer loop
      vertex 17.8004 -1.42658 10
      vertex 17.3366 -4.6194 10
      vertex 19.25 -5 10
    endloop
  endfacet
  facet normal 0 0 1
    outer loop
      vertex 15.7145 -3.53553 10
      vertex 17.8004 -1.42658 10
      vertex 16.0642 -0.881678 10
    endloop
  endfacet
  facet normal 0 0 1
    outer loop
      vertex 17.8004 -1.42658 10
      vertex 15.7145 -3.53553 10
      vertex 17.3366 -4.6194 10
    endloop
  endfacet
  facet normal 0 0 1
    outer loop
      vertex 14.25 0 10
      vertex 16.0642 0.881678 10
      vertex 14.6306 1.91342 10
    endloop
  endfacet
  facet normal 0 0 1
    outer loop
      vertex 16.0642 0.881678 10
      vertex 14.25 0 10
      vertex 16.0642 -0.881678 10
    endloop
  endfacet
  facet normal 0 0 1
    outer loop
      vertex 16.0642 -0.881678 10
      vertex 14.6306 -1.91342 10
      vertex 15.7145 -3.53553 10
    endloop
  endfacet
  facet normal 0 0 1
    outer loop
      vertex 16.0642 -0.881678 10
      vertex 14.25 0 10
      vertex 14.6306 -1.91342 10
    endloop
  endfacet
  facet normal -0.55557 0.83147 0
    outer loop
      vertex 17.3366 4.6194 0
      vertex 15.7145 3.53553 10
      vertex 17.3366 4.6194 10
    endloop
  endfacet
  facet normal -0.55557 0.83147 0
    outer loop
      vertex 15.7145 3.53553 10
      vertex 17.3366 4.6194 0
      vertex 15.7145 3.53553 0
    endloop
  endfacet
  facet normal -0.83147 -0.55557 0
    outer loop
      vertex 15.3302 -2.9605 0
      vertex 15.7145 -3.53553 0
      vertex 15.3302 -2.9605 7
    endloop
  endfacet
  facet normal -0.83147 -0.55557 0
    outer loop
      vertex 15.3302 -2.9605 7
      vertex 14.6306 -1.91342 10
      vertex 14.6306 -1.91342 7
    endloop
  endfacet
  facet normal -0.83147 -0.55557 -1.09419e-07
    outer loop
      vertex 15.3302 -2.9605 7
      vertex 15.7145 -3.53553 10
      vertex 14.6306 -1.91342 10
    endloop
  endfacet
  facet normal -0.83147 -0.55557 -0
    outer loop
      vertex 15.7145 -3.53553 10
      vertex 15.3302 -2.9605 7
      vertex 15.7145 -3.53553 0
    endloop
  endfacet
  facet normal -0.980785 -0.19509 0
    outer loop
      vertex 14.6306 -1.91342 7
      vertex 14.25 0 10
      vertex 14.25 0 7
    endloop
  endfacet
  facet normal -0.980785 -0.19509 0
    outer loop
      vertex 14.25 0 10
      vertex 14.6306 -1.91342 7
      vertex 14.6306 -1.91342 10
    endloop
  endfacet
  facet normal 0.83147 -0.55557 0
    outer loop
      vertex 22.7855 -3.53553 10
      vertex 23.8694 -1.91342 0
      vertex 23.8694 -1.91342 10
    endloop
  endfacet
  facet normal 0.83147 -0.55557 0
    outer loop
      vertex 23.8694 -1.91342 0
      vertex 22.7855 -3.53553 10
      vertex 22.7855 -3.53553 0
    endloop
  endfacet
  facet normal 0.980785 -0.195091 0
    outer loop
      vertex 23.8694 -1.91342 10
      vertex 24.25 0 0
      vertex 24.25 0 10
    endloop
  endfacet
  facet normal 0.980785 -0.195091 0
    outer loop
      vertex 24.25 0 0
      vertex 23.8694 -1.91342 10
      vertex 23.8694 -1.91342 0
    endloop
  endfacet
  facet normal -0.195091 -0.980785 0
    outer loop
      vertex 17.3366 -4.6194 0
      vertex 19.25 -5 10
      vertex 17.3366 -4.6194 10
    endloop
  endfacet
  facet normal -0.195091 -0.980785 -0
    outer loop
      vertex 19.25 -5 10
      vertex 17.3366 -4.6194 0
      vertex 19.25 -5 0
    endloop
  endfacet
  facet normal -0.55557 -0.83147 0
    outer loop
      vertex 15.7145 -3.53553 0
      vertex 17.3366 -4.6194 10
      vertex 15.7145 -3.53553 10
    endloop
  endfacet
  facet normal -0.55557 -0.83147 -0
    outer loop
      vertex 17.3366 -4.6194 10
      vertex 15.7145 -3.53553 0
      vertex 17.3366 -4.6194 0
    endloop
  endfacet
  facet normal -0.78145 -0.587786 -0.209389
    outer loop
      vertex 21.5529 0 0
      vertex 17.8004 1.42658 10
      vertex 20.4799 1.42658 0
    endloop
  endfacet
  facet normal -0.78145 -0.587786 -0.209389
    outer loop
      vertex 17.8004 1.42658 10
      vertex 21.5529 0 0
      vertex 18.8734 0 10
    endloop
  endfacet
  facet normal 0.298488 -0.951057 0.0799795
    outer loop
      vertex 18.7437 0.881678 0
      vertex 17.8004 1.42658 10
      vertex 16.0642 0.881678 10
    endloop
  endfacet
  facet normal 0.298488 -0.951057 0.0799795
    outer loop
      vertex 17.8004 1.42658 10
      vertex 18.7437 0.881678 0
      vertex 20.4799 1.42658 0
    endloop
  endfacet
  facet normal 0.965926 -0 0.258819
    outer loop
      vertex 16.0642 -0.881678 10
      vertex 18.7437 0.881678 0
      vertex 16.0642 0.881678 10
    endloop
  endfacet
  facet normal 0.965926 0 0.258819
    outer loop
      vertex 18.7437 0.881678 0
      vertex 16.0642 -0.881678 10
      vertex 18.7437 -0.881678 0
    endloop
  endfacet
  facet normal 0.298488 0.951057 0.0799795
    outer loop
      vertex 18.7437 -0.881678 0
      vertex 17.8004 -1.42658 10
      vertex 20.4799 -1.42658 0
    endloop
  endfacet
  facet normal 0.298488 0.951057 0.0799795
    outer loop
      vertex 17.8004 -1.42658 10
      vertex 18.7437 -0.881678 0
      vertex 16.0642 -0.881678 10
    endloop
  endfacet
  facet normal -0.78145 0.587786 -0.209389
    outer loop
      vertex 20.4799 -1.42658 0
      vertex 18.8734 0 10
      vertex 21.5529 0 0
    endloop
  endfacet
  facet normal -0.78145 0.587786 -0.209389
    outer loop
      vertex 18.8734 0 10
      vertex 20.4799 -1.42658 0
      vertex 17.8004 -1.42658 10
    endloop
  endfacet
endsolid OpenSCAD_Model
